<svg xmlns="http://www.w3.org/2000/svg" xmlns:xlink="http://www.w3.org/1999/xlink" xmlns:inkscape="http://www.inkscape.org/namespaces/inkscape" version="1.1" width="285.4648" height="102.1163" viewBox="165.5071 368.3969 285.4648 102.1163">
<g fill="#ffffff" inkscape:groupmode="layer" inkscape:label="Layer 1">
<path transform="matrix(1,0,0,-1,0,841.8898)" d="M203.766 459.8773C203.766 459.5539 203.6529 459.2789 203.4266 459.0524 203.2002 458.8262 202.9252 458.7129 202.6018 458.7129H183.0988C182.7757 458.7129 182.6138 458.5513 182.6138 458.2278V446.002C182.6138 445.6786 182.7757 445.5167 183.0988 445.5167H193.7721C194.0956 445.5167 194.3705 445.4036 194.597 445.1774 194.8232 444.9509 194.9366 444.676 194.9366 444.3525V432.8062C194.9366 432.4827 194.8232 432.2078 194.597 431.9813 194.3705 431.7551 194.0956 431.6417 193.7721 431.6417H183.0988C182.7757 431.6417 182.6138 431.4801 182.6138 431.1564V418.8339C182.6138 418.5105 182.7757 418.3489 183.0988 418.3489H202.6018C202.9252 418.3489 203.2002 418.2355 203.4266 418.0093 203.6529 417.7828 203.766 417.5079 203.766 417.1844V405.735C203.766 405.4116 203.6529 405.1366 203.4266 404.9104 203.2002 404.6839 202.9252 404.5708 202.6018 404.5708H167.6716C167.3481 404.5708 167.0732 404.6839 166.8467 404.9104 166.6202 405.1366 166.5071 405.4116 166.5071 405.735V471.3265C166.5071 471.6502 166.6202 471.9249 166.8467 472.1513 167.0732 472.3778 167.3481 472.4909 167.6716 472.4909H202.6018C202.9252 472.4909 203.2002 472.3778 203.4266 472.1513 203.6529 471.9249 203.766 471.6502 203.766 471.3265ZM246.5558 459.8773C246.5558 459.5539 246.4427 459.2789 246.2162 459.0524 245.99 458.8262 245.715 458.7129 245.3916 458.7129H225.8887C225.5652 458.7129 225.4037 458.5513 225.4037 458.2278V446.002C225.4037 445.6786 225.5652 445.5167 225.8887 445.5167H236.562C236.8851 445.5167 237.1601 445.4036 237.3866 445.1774 237.613 444.9509 237.7261 444.676 237.7261 444.3525V432.8062C237.7261 432.4827 237.613 432.2078 237.3866 431.9813 237.1601 431.7551 236.8851 431.6417 236.562 431.6417H225.8887C225.5652 431.6417 225.4037 431.4801 225.4037 431.1564V405.735C225.4037 405.4116 225.2903 405.1366 225.0638 404.9104 224.8376 404.6839 224.5626 404.5708 224.2392 404.5708H210.4611C210.1377 404.5708 209.8627 404.6839 209.6362 404.9104 209.41 405.1366 209.2969 405.4116 209.2969 405.735V471.3265C209.2969 471.6502 209.41 471.9249 209.6362 472.1513 209.8627 472.3778 210.1377 472.4909 210.4611 472.4909H245.3916C245.715 472.4909 245.99 472.3778 246.2162 472.1513 246.4427 471.9249 246.5558 471.6502 246.5558 471.3265ZM287.9872 459.8773C287.9872 459.5539 287.8739 459.2789 287.6477 459.0524 287.4212 458.8262 287.1462 458.7129 286.8228 458.7129H267.3201C266.9967 458.7129 266.8348 458.5513 266.8348 458.2278V446.002C266.8348 445.6786 266.9967 445.5167 267.3201 445.5167H277.9931C278.3166 445.5167 278.5915 445.4036 278.818 445.1774 279.0445 444.9509 279.1576 444.676 279.1576 444.3525V432.8062C279.1576 432.4827 279.0445 432.2078 278.818 431.9813 278.5915 431.7551 278.3166 431.6417 277.9931 431.6417H267.3201C266.9967 431.6417 266.8348 431.4801 266.8348 431.1564V418.8339C266.8348 418.5105 266.9967 418.3489 267.3201 418.3489H286.8228C287.1462 418.3489 287.4212 418.2355 287.6477 418.0093 287.8739 417.7828 287.9872 417.5079 287.9872 417.1844V405.735C287.9872 405.4116 287.8739 405.1366 287.6477 404.9104 287.4212 404.6839 287.1462 404.5708 286.8228 404.5708H251.8926C251.5691 404.5708 251.2942 404.6839 251.0677 404.9104 250.8415 405.1366 250.7281 405.4116 250.7281 405.735V471.3265C250.7281 471.6502 250.8415 471.9249 251.0677 472.1513 251.2942 472.3778 251.5691 472.4909 251.8926 472.4909H286.8228C287.1462 472.4909 287.4212 472.3778 287.6477 472.1513 287.8739 471.9249 287.9872 471.6502 287.9872 471.3265ZM293.1296 404.5708C292.6769 404.5708 292.3858 404.7001 292.2565 404.9589 292.127 405.2177 292.127 405.5411 292.2565 405.9292L305.2582 438.2396C305.3231 438.4338 305.3231 438.6277 305.2582 438.8219L292.2565 471.1326C292.1919 471.2621 292.1593 471.456 292.1593 471.7145 292.1593 472.2321 292.483 472.4909 293.1296 472.4909H307.1988C307.8456 472.4909 308.266 472.1675 308.4602 471.5206L313.6997 455.5108C313.7644 455.2523 313.8613 455.1228 313.9909 455.1228 314.1201 455.1228 314.2174 455.2523 314.282 455.5108L319.4243 471.5206C319.6185 472.1675 320.0389 472.4909 320.6857 472.4909H334.658C335.111 472.4909 335.4018 472.3617 335.5311 472.1029 335.6606 471.8441 335.6606 471.5206 335.5311 471.1326L322.5294 438.8219C322.4648 438.6277 322.4648 438.4338 322.5294 438.2396L335.5311 405.9292C335.596 405.7997 335.6283 405.6058 335.6283 405.347 335.6283 404.8296 335.3049 404.5708 334.658 404.5708H320.783C320.1361 404.5708 319.7154 404.8943 319.5215 405.5411L314.282 421.4537C314.2174 421.7125 314.1201 421.8259 313.9909 421.7933 313.8613 421.761 313.7644 421.6479 313.6997 421.4537L308.3632 405.5411C308.1691 404.8943 307.7487 404.5708 307.1018 404.5708ZM389.0911 472.1998C389.6084 472.394 390.0937 472.4909 390.5464 472.4909H404.7126C405.036 472.4909 405.311 472.3778 405.5374 472.1513 405.7639 471.9249 405.877 471.6502 405.877 471.3265V405.735C405.877 405.4116 405.7639 405.1366 405.5374 404.9104 405.311 404.6839 405.036 404.5708 404.7126 404.5708H390.9345C390.6111 404.5708 390.3361 404.6839 390.1099 404.9104 389.8834 405.1366 389.7703 405.4116 389.7703 405.735V457.2575C389.7703 457.5161 389.6084 457.6456 389.285 457.6456L383.1724 456.9664H382.9782C382.2667 456.9664 381.911 457.3545 381.911 458.1306V468.3186C381.911 468.9655 382.2018 469.4185 382.7843 469.677ZM341.1768 404.5689C340.8571 404.5689 340.5855 404.6805 340.3616 404.9045 340.1376 405.1284 340.0257 405.4003 340.0257 405.72V417.4243C340.0257 417.8721 340.1855 418.352 340.5053 418.8634 340.3134 418.6077 341.9765 420.5585 345.4943 424.7158 347.9247 427.5938 350.2911 430.456 352.5936 433.3022 354.8962 436.1485 356.783 438.6586 358.2541 440.8333 361.4519 445.7582 363.0509 449.9793 363.0509 453.4971 363.0509 455.288 362.715 456.6311 362.0435 457.5268 361.372 458.422 360.4927 458.8699 359.4053 458.8699 358.3179 458.8699 357.4386 458.422 356.7668 457.5268 356.0953 456.6311 355.7917 455.4799 355.8555 454.0728V449.9476C355.8555 449.6275 355.7435 449.3557 355.5198 449.132 355.2959 448.9081 355.0238 448.7961 354.7043 448.7961H340.8891C340.5694 448.7961 340.2975 448.9081 340.0736 449.132 339.8499 449.3557 339.738 449.6275 339.738 449.9476V454.7443C340.0577 460.0531 342.1043 464.3382 345.8778 467.6003 349.6516 470.8621 354.4163 472.4929 360.1726 472.4929 363.8823 472.4929 367.1762 471.6935 370.0545 470.0945 372.9325 468.4955 375.171 466.257 376.77 463.3787 378.3688 460.5007 379.1684 457.1751 379.1684 453.4013 379.1684 450.0113 378.6406 446.8615 377.5856 443.9511 376.53 441.0411 374.8192 437.9233 372.4529 434.5974 370.726 432.167 367.6558 428.3294 363.2426 423.0848 361.5797 421.166 360.3645 419.7271 359.5969 418.7676 359.4691 418.6397 359.4373 418.5116 359.5011 418.3838 359.5652 418.2559 359.693 418.1919 359.8849 418.1919H378.7846C379.1044 418.1919 379.3762 418.0802 379.6002 417.8563 379.8238 417.6323 379.9361 417.3605 379.9361 417.0407V405.72C379.9361 405.4003 379.8238 405.1284 379.6002 404.9045 379.3762 404.6805 379.1044 404.5689 378.7846 404.5689ZM449.8773 430.7516C449.9405 429.8031 449.9719 428.2852 449.9719 426.1983V420.9806C449.9087 415.7946 448.1379 411.7629 444.6595 408.8852 441.1811 406.0077 436.5326 404.5689 430.7142 404.5689 425.2751 404.5689 420.8638 405.8969 417.4804 408.5532 414.0967 411.2096 412.1836 415.1305 411.7408 420.3164 411.5511 421.6448 411.4562 423.131 411.4562 424.7753L411.2666 455.322C411.2033 460.5715 412.9268 464.7455 416.4367 467.8444 419.9468 470.9435 424.6112 472.4929 430.4293 472.4929 435.9319 472.4929 440.4223 470.9435 443.9007 467.8444 447.3791 464.7455 449.1184 460.5715 449.1184 455.322V451.8122C449.1184 451.4958 449.0076 451.2271 448.7862 451.0057 448.5648 450.7843 448.2961 450.6738 447.9797 450.6738H434.5087C434.1926 450.6738 433.9239 450.7843 433.7025 451.0057 433.4811 451.2271 433.3703 451.4958 433.3703 451.8122V454.2786C433.3703 455.5437 433.0698 456.5871 432.4691 457.4092 431.8682 458.2312 431.1884 458.6426 430.4293 458.6426 429.4176 458.6426 428.6112 458.2312 428.0105 457.4092 427.4096 456.5871 427.1091 455.5437 427.1091 454.2786V444.9815C427.1091 444.7919 427.1723 444.6811 427.2987 444.6496 427.4254 444.6179 427.5519 444.6655 427.6783 444.7919 429.9551 446.6259 432.39 447.5429 434.9829 447.5429 439.4733 447.5429 443.0469 446.0411 445.703 443.037 448.3593 440.0328 449.7506 435.9379 449.8773 430.7516ZM433.9397 422.119C434.0027 423.7002 434.0344 425.4392 434.0344 427.3367L433.8448 432.3645C433.7181 433.5029 433.3703 434.4199 432.8011 435.1156 432.2319 435.8112 431.5048 436.1593 430.6192 436.1593 429.6705 436.1593 428.8961 435.8112 428.2951 435.1156 427.6945 434.4199 427.3305 433.4715 427.2041 432.2696 427.1406 430.6884 427.1091 429.044 427.1091 427.3367 427.1091 425.376 427.1406 423.6052 427.2041 422.024 427.3305 420.7592 427.6783 419.779 428.2478 419.0834 428.8167 418.3875 429.6073 418.0397 430.6192 418.0397 431.568 418.0397 432.3268 418.4033 432.896 419.1307 433.4652 419.8581 433.813 420.8542 433.9397 422.119" fill-rule="evenodd"/>
<path transform="matrix(1,0,0,-1,0,841.8898)" d="M260.5912 395.4677C260.6573 395.644 260.7783 395.7318 260.9541 395.7318H261.6469C261.8668 395.7318 261.9768 395.6219 261.9768 395.4022V372.9708C261.9768 372.7505 261.8668 372.6408 261.6469 372.6408H261.0201C260.8002 372.6408 260.6902 372.7505 260.6902 372.9708V392.466C260.6902 392.5318 260.6681 392.565 260.6241 392.565 260.5805 392.565 260.5473 392.5431 260.5252 392.4989L256.7316 383.7246C256.6655 383.5485 256.5448 383.4604 256.369 383.4604 256.1927 383.4604 256.072 383.5485 256.0059 383.7246L252.1794 392.4329C252.1576 392.4771 252.1247 392.4989 252.0805 392.4989 252.0366 392.4989 252.0145 392.466 252.0145 392.4V372.9708C252.0145 372.7505 251.9045 372.6408 251.6848 372.6408H251.0578C250.8378 372.6408 250.7281 372.7505 250.7281 372.9708V395.4022C250.7281 395.6219 250.8378 395.7318 251.0578 395.7318H251.7177C251.8937 395.7318 252.0145 395.644 252.0805 395.4677L256.2701 385.9676C256.2917 385.9234 256.3248 385.9019 256.369 385.9019 256.413 385.9019 256.4459 385.9234 256.468 385.9676ZM267.0568 372.6408C266.8368 372.6408 266.7268 372.7505 266.7268 372.9708V388.8706C266.7268 389.0903 266.8368 389.2003 267.0568 389.2003H267.6835C267.9035 389.2003 268.0132 389.0903 268.0132 388.8706V372.9708C268.0132 372.7505 267.9035 372.6408 267.6835 372.6408ZM267.3536 392.7628C266.9136 392.7628 266.5562 392.9057 266.2815 393.1917 266.0066 393.4774 265.8691 393.8295 265.8691 394.2473 265.8691 394.687 266.0066 395.0501 266.2815 395.3361 266.5562 395.6219 266.9136 395.7647 267.3536 395.7647 267.7932 395.7647 268.1561 395.6219 268.4424 395.3361 268.7281 395.0501 268.871 394.687 268.871 394.2473 268.871 393.8074 268.7281 393.4502 268.4424 393.1753 268.1561 392.9006 267.7932 392.7628 267.3536 392.7628ZM284.8042 389.4313C286.0135 389.4313 286.9866 388.9474 287.7233 387.9797 288.4601 387.0122 288.8283 385.7148 288.8283 384.0874V372.9708C288.8283 372.7505 288.7186 372.6408 288.4986 372.6408H287.8719C287.6519 372.6408 287.5419 372.7505 287.5419 372.9708V383.9553C287.5419 385.2748 287.2559 386.3251 286.6842 387.1057 286.1124 387.8864 285.3646 388.2767 284.4411 388.2767 283.4512 388.2767 282.6655 387.8972 282.0824 387.1386 281.4996 386.3798 281.2085 385.3409 281.2085 384.0214V372.9708C281.2085 372.7505 281.0985 372.6408 280.8785 372.6408H280.2847C280.0647 372.6408 279.955 372.7505 279.955 372.9708V383.9553C279.955 385.2748 279.669 386.3251 279.0972 387.1057 278.5252 387.8864 277.7885 388.2767 276.8871 388.2767 275.8972 388.2767 275.1058 387.8972 274.5119 387.1386 273.9183 386.3798 273.6213 385.3409 273.6213 384.0214V372.9708C273.6213 372.7505 273.5113 372.6408 273.2913 372.6408H272.6646C272.4449 372.6408 272.3349 372.7505 272.3349 372.9708V388.8706C272.3349 389.0903 272.4449 389.2003 272.6646 389.2003H273.2913C273.5113 389.2003 273.6213 389.0903 273.6213 388.8706V387.5182C273.6213 387.4521 273.6377 387.4192 273.6709 387.4192 273.7037 387.4192 273.742 387.4411 273.7862 387.485 274.182 388.1225 274.6769 388.6067 275.2707 388.9366 275.8643 389.2663 276.5132 389.4313 277.2167 389.4313 278.0524 389.4313 278.7837 389.2003 279.4105 388.7385 280.0375 388.2767 280.5046 387.6168 280.8125 386.7593 280.8564 386.6272 280.9114 386.6383 280.9774 386.7922 281.3074 387.6497 281.8131 388.3039 282.4948 388.7552 283.1766 389.2059 283.9462 389.4313 284.8042 389.4313ZM297.5703 389.4642C298.9996 389.4642 300.1158 388.9695 300.9183 387.9797 301.7208 386.9901 302.1225 385.6595 302.1225 383.9885V372.9708C302.1225 372.7505 302.0125 372.6408 301.7925 372.6408H301.1658C300.9458 372.6408 300.8361 372.7505 300.8361 372.9708V374.3232C300.8361 374.3889 300.8194 374.4221 300.7865 374.4221 300.7536 374.4221 300.7148 374.4 300.6711 374.3561 300.253 373.6962 299.6977 373.2015 299.0052 372.8716 298.3122 372.5416 297.5482 372.3766 296.7123 372.3766 295.5688 372.3766 294.5903 372.7123 293.7764 373.3829 292.9629 374.0536 292.5561 375.2249 292.5561 376.8959 292.5561 378.6772 293.0397 380.0024 294.0075 380.8712 294.9752 381.7397 296.2726 382.174 297.9003 382.174H300.704C300.7919 382.174 300.8361 382.218 300.8361 382.3061V383.9885C300.8361 385.3077 300.5498 386.358 299.9781 387.1386 299.4063 387.9193 298.5928 388.3096 297.5372 388.3096 296.7015 388.3096 295.9705 388.0514 295.3434 387.5346 294.717 387.0176 294.3595 386.3415 294.2714 385.5059 294.2714 385.2859 294.1617 385.1759 293.9414 385.1759L293.2489 385.2088C293.1608 385.2088 293.0839 385.242 293.0179 385.3077 292.9521 385.3738 292.93 385.4619 292.9521 385.5719 293.0839 386.7372 293.5843 387.6775 294.4528 388.3921 295.3216 389.1067 296.3608 389.4642 297.5703 389.4642ZM296.9433 373.5312C298.021 373.5312 298.9392 373.8668 299.6977 374.5375 300.4566 375.2082 300.8361 376.1813 300.8361 377.4569V380.9205C300.8361 381.0084 300.7919 381.0526 300.704 381.0526H297.9332C296.7015 381.0526 295.7173 380.7116 294.9806 380.0299 294.2442 379.3482 293.8757 378.3365 293.8757 376.9948 293.8757 375.8295 294.156 374.961 294.717 374.3889 295.2774 373.8172 296.0198 373.5312 296.9433 373.5312ZM311.161 389.3321C311.711 389.3321 312.1838 389.2224 312.5795 389.0024 312.7334 388.9145 312.7774 388.7717 312.7113 388.5735L312.5137 387.9136C312.4477 387.7157 312.3045 387.661 312.0849 387.7489 311.777 387.8807 311.381 387.9357 310.8971 387.9136 309.9733 387.9136 309.2094 387.4629 308.6045 386.5612 307.9998 385.6595 307.6974 384.5381 307.6974 383.1965V372.9708C307.6974 372.7505 307.5874 372.6408 307.3674 372.6408H306.7407C306.521 372.6408 306.411 372.7505 306.411 372.9708V388.8706C306.411 389.0903 306.521 389.2003 306.7407 389.2003H307.3674C307.5874 389.2003 307.6974 389.0903 307.6974 388.8706V386.7262C307.6974 386.6604 307.7192 386.6272 307.7634 386.6272 307.8074 386.6272 307.8403 386.6604 307.8624 386.7262 308.192 387.54 308.632 388.1778 309.1819 388.6396 309.7315 389.1016 310.3914 389.3321 311.161 389.3321ZM315.7132 372.6408C315.4932 372.6408 315.3835 372.7505 315.3835 372.9708V395.4022C315.3835 395.6219 315.4932 395.7318 315.7132 395.7318H316.3399C316.5602 395.7318 316.6699 395.6219 316.6699 395.4022V372.9708C316.6699 372.7505 316.5602 372.6408 316.3399 372.6408ZM321.1231 372.6408C320.9031 372.6408 320.7932 372.7505 320.7932 372.9708V388.8706C320.7932 389.0903 320.9031 389.2003 321.1231 389.2003H321.7499C321.9698 389.2003 322.0798 389.0903 322.0798 388.8706V372.9708C322.0798 372.7505 321.9698 372.6408 321.7499 372.6408ZM326.7309 372.6408C326.5112 372.6408 326.4012 372.7505 326.4012 372.9708V395.4022C326.4012 395.6219 326.5112 395.7318 326.7309 395.7318H327.3576C327.5776 395.7318 327.6876 395.6219 327.6876 395.4022V381.0855C327.6876 381.0413 327.7094 381.0141 327.7536 381.003 327.7976 380.992 327.8305 381.0084 327.8526 381.0526L333.6914 389.0024C333.7792 389.1342 333.9224 389.2003 334.1203 389.2003H334.7799C334.9117 389.2003 334.9998 389.162 335.0438 389.0849 335.0877 389.0078 335.0659 388.9145 334.9777 388.8045L331.844 384.516C331.8001 384.45 331.789 384.3952 331.8111 384.3513L335.6376 373.0037 335.6708 372.8716C335.6708 372.7176 335.5716 372.6408 335.3737 372.6408H334.7138C334.516 372.6408 334.3839 372.7287 334.3178 372.9047L331.0194 383.2296C330.9973 383.3614 330.9313 383.3728 330.8216 383.2625L327.7536 379.0732C327.7094 379.0293 327.6876 378.9743 327.6876 378.9082V372.9708C327.6876 372.7505 327.5776 372.6408 327.3576 372.6408ZM354.7375 395.4022C354.7375 395.6219 354.8472 395.7318 355.0674 395.7318H355.6939C355.9139 395.7318 356.0238 395.6219 356.0238 395.4022V372.9708C356.0238 372.7505 355.9139 372.6408 355.6939 372.6408H355.0674C354.8472 372.6408 354.7375 372.7505 354.7375 372.9708V383.4935C354.7375 383.5817 354.6933 383.6254 354.6054 383.6254H347.546C347.4581 383.6254 347.4139 383.5817 347.4139 383.4935V372.9708C347.4139 372.7505 347.3042 372.6408 347.0842 372.6408H346.4575C346.2375 372.6408 346.1275 372.7505 346.1275 372.9708V395.4022C346.1275 395.6219 346.2375 395.7318 346.4575 395.7318H347.0842C347.3042 395.7318 347.4139 395.6219 347.4139 395.4022V384.912C347.4139 384.8241 347.4581 384.7799 347.546 384.7799H354.6054C354.6933 384.7799 354.7375 384.8241 354.7375 384.912ZM361.1041 372.6408C360.8838 372.6408 360.7741 372.7505 360.7741 372.9708V388.8706C360.7741 389.0903 360.8838 389.2003 361.1041 389.2003H361.7306C361.9505 389.2003 362.0605 389.0903 362.0605 388.8706V372.9708C362.0605 372.7505 361.9505 372.6408 361.7306 372.6408ZM361.4006 392.7628C360.9607 392.7628 360.6035 392.9057 360.3285 393.1917 360.0539 393.4774 359.9161 393.8295 359.9161 394.2473 359.9161 394.687 360.0539 395.0501 360.3285 395.3361 360.6035 395.6219 360.9607 395.7647 361.4006 395.7647 361.8405 395.7647 362.2034 395.6219 362.4894 395.3361 362.7751 395.0501 362.918 394.687 362.918 394.2473 362.918 393.8074 362.7751 393.4502 362.4894 393.1753 362.2034 392.9006 361.8405 392.7628 361.4006 392.7628ZM365.6891 372.6408C365.4692 372.6408 365.3592 372.7505 365.3592 372.9708V373.5972C365.3592 373.7293 365.3923 373.8725 365.4581 374.0261L372.9132 387.8478C372.9574 387.9578 372.9353 388.0128 372.8472 388.0128H365.7881C365.5681 388.0128 365.4581 388.1225 365.4581 388.3428V388.8706C365.4581 389.0903 365.5681 389.2003 365.7881 389.2003H374.167C374.3867 389.2003 374.4967 389.0903 374.4967 388.8706V388.2436C374.4967 388.1339 374.4638 387.991 374.3977 387.8147L366.9426 373.9932C366.8987 373.8832 366.9205 373.8283 367.0087 373.8283H374.1341C374.3538 373.8283 374.4638 373.7183 374.4638 373.4983V372.9708C374.4638 372.7505 374.3538 372.6408 374.1341 372.6408ZM390.5617 389.4313C391.7713 389.4313 392.7444 388.9474 393.4811 387.9797 394.2179 387.0122 394.5861 385.7148 394.5861 384.0874V372.9708C394.5861 372.7505 394.4764 372.6408 394.2561 372.6408H393.6297C393.4097 372.6408 393.2997 372.7505 393.2997 372.9708V383.9553C393.2997 385.2748 393.0137 386.3251 392.442 387.1057 391.8702 387.8864 391.1224 388.2767 390.1989 388.2767 389.209 388.2767 388.4233 387.8972 387.8402 387.1386 387.2574 386.3798 386.9663 385.3409 386.9663 384.0214V372.9708C386.9663 372.7505 386.8563 372.6408 386.6363 372.6408H386.0425C385.8225 372.6408 385.7128 372.7505 385.7128 372.9708V383.9553C385.7128 385.2748 385.4268 386.3251 384.8547 387.1057 384.283 387.8864 383.5463 388.2767 382.6449 388.2767 381.655 388.2767 380.8636 387.8972 380.2697 387.1386 379.6761 386.3798 379.3791 385.3409 379.3791 384.0214V372.9708C379.3791 372.7505 379.2691 372.6408 379.0491 372.6408H378.4224C378.2027 372.6408 378.0927 372.7505 378.0927 372.9708V388.8706C378.0927 389.0903 378.2027 389.2003 378.4224 389.2003H379.0491C379.2691 389.2003 379.3791 389.0903 379.3791 388.8706V387.5182C379.3791 387.4521 379.3955 387.4192 379.4287 387.4192 379.4615 387.4192 379.4998 387.4411 379.544 387.485 379.9397 388.1225 380.4347 388.6067 381.0285 388.9366 381.6221 389.2663 382.271 389.4313 382.9745 389.4313 383.8102 389.4313 384.5415 389.2003 385.1683 388.7385 385.7953 388.2767 386.2624 387.6168 386.5703 386.7593 386.6142 386.6272 386.6692 386.6383 386.7352 386.7922 387.0652 387.6497 387.5709 388.3039 388.2526 388.7552 388.9344 389.2059 389.704 389.4313 390.5617 389.4313ZM408.0453 380.8877C408.0453 380.6677 407.9353 380.5577 407.7153 380.5577H400.0623C399.9742 380.5577 399.9302 380.5138 399.9302 380.4256V377.259C399.9302 376.1592 400.2491 375.2631 400.8866 374.5706 401.5244 373.8776 402.3383 373.5312 403.3281 373.5312 404.1638 373.5312 404.8784 373.7733 405.472 374.2571 406.0658 374.7407 406.4618 375.3899 406.6597 376.2034 406.7257 376.4013 406.8465 376.5005 407.0225 376.5005L407.6164 376.4673C407.7261 376.4673 407.8086 376.4344 407.8638 376.3684 407.9188 376.3023 407.9353 376.2142 407.9132 376.1045 407.7153 374.9828 407.2039 374.0811 406.3793 373.3997 405.5545 372.7176 404.5377 372.3766 403.3281 372.3766 401.9426 372.3766 400.8155 372.8222 399.9467 373.7126 399.0781 374.6035 398.6439 375.7635 398.6439 377.193V384.6149C398.6439 386.0447 399.0781 387.21 399.9467 388.1117 400.8155 389.0134 401.9426 389.4642 403.3281 389.4642 404.7355 389.4642 405.8736 389.0134 406.7422 388.1117 407.6107 387.21 408.0453 386.0447 408.0453 384.6149ZM403.3281 388.3096C402.3383 388.3096 401.5244 387.9632 400.8866 387.2707 400.2491 386.5779 399.9302 385.6816 399.9302 384.582V381.778C399.9302 381.6904 399.9742 381.6462 400.0623 381.6462H406.6268C406.7147 381.6462 406.7586 381.6904 406.7586 381.778V384.582C406.7586 385.6816 406.4397 386.5779 405.8019 387.2707 405.1641 387.9632 404.3395 388.3096 403.3281 388.3096ZM416.9846 388.4746C416.9846 388.2546 416.8749 388.1446 416.6549 388.1446H413.9169C413.8291 388.1446 413.7849 388.1007 413.7849 388.0128V376.9291C413.7849 375.7635 413.9827 374.9499 414.3787 374.4882 414.7747 374.0261 415.4012 373.7951 416.2592 373.7951H416.622C416.8417 373.7951 416.9517 373.6854 416.9517 373.4651V372.9708C416.9517 372.7505 416.8417 372.6408 416.622 372.6408H416.0611C414.8955 372.6408 414.0105 372.9266 413.4059 373.4983 412.8009 374.07 412.4985 375.1367 412.4985 376.698V388.0128C412.4985 388.1007 412.4546 388.1446 412.3664 388.1446H411.014C410.7943 388.1446 410.684 388.2546 410.684 388.4746V388.8706C410.684 389.0903 410.7943 389.2003 411.014 389.2003H412.3664C412.4546 389.2003 412.4985 389.2445 412.4985 389.3321V393.0267C412.4985 393.247 412.6082 393.3567 412.8284 393.3567H413.4552C413.6749 393.3567 413.7849 393.247 413.7849 393.0267V389.3321C413.7849 389.2445 413.8291 389.2003 413.9169 389.2003H416.6549C416.8749 389.2003 416.9846 389.0903 416.9846 388.8706ZM420.5475 372.6408C420.3275 372.6408 420.2178 372.7505 420.2178 372.9708V395.4022C420.2178 395.6219 420.3275 395.7318 420.5475 395.7318H421.1742C421.3942 395.7318 421.5042 395.6219 421.5042 395.4022V372.9708C421.5042 372.7505 421.3942 372.6408 421.1742 372.6408ZM434.9628 380.8877C434.9628 380.6677 434.8531 380.5577 434.6331 380.5577H426.9798C426.892 380.5577 426.848 380.5138 426.848 380.4256V377.259C426.848 376.1592 427.1666 375.2631 427.8044 374.5706 428.4422 373.8776 429.2558 373.5312 430.2456 373.5312 431.0816 373.5312 431.7962 373.7733 432.3898 374.2571 432.9836 374.7407 433.3796 375.3899 433.5775 376.2034 433.6435 376.4013 433.7643 376.5005 433.94 376.5005L434.5339 376.4673C434.6439 376.4673 434.7264 376.4344 434.7814 376.3684 434.8366 376.3023 434.8531 376.2142 434.831 376.1045 434.6331 374.9828 434.1214 374.0811 433.2971 373.3997 432.4723 372.7176 431.4552 372.3766 430.2456 372.3766 428.8603 372.3766 427.7333 372.8222 426.8645 373.7126 425.9957 374.6035 425.5614 375.7635 425.5614 377.193V384.6149C425.5614 386.0447 425.9957 387.21 426.8645 388.1117 427.7333 389.0134 428.8603 389.4642 430.2456 389.4642 431.6533 389.4642 432.7911 389.0134 433.66 388.1117 434.5285 387.21 434.9628 386.0447 434.9628 384.6149ZM430.2456 388.3096C429.2558 388.3096 428.4422 387.9632 427.8044 387.2707 427.1666 386.5779 426.848 385.6816 426.848 384.582V381.778C426.848 381.6904 426.892 381.6462 426.9798 381.6462H433.5446C433.6322 381.6462 433.6764 381.6904 433.6764 381.778V384.582C433.6764 385.6816 433.3575 386.5779 432.7197 387.2707 432.0819 387.9632 431.2573 388.3096 430.2456 388.3096ZM443.7703 389.3321C444.3205 389.3321 444.7933 389.2224 445.189 389.0024 445.343 388.9145 445.3869 388.7717 445.3209 388.5735L445.123 387.9136C445.0572 387.7157 444.9141 387.661 444.6941 387.7489 444.3863 387.8807 443.9906 387.9357 443.5067 387.9136 442.5829 387.9136 441.8186 387.4629 441.214 386.5612 440.6091 385.6595 440.3069 384.5381 440.3069 383.1965V372.9708C440.3069 372.7505 440.1967 372.6408 439.977 372.6408H439.3502C439.1303 372.6408 439.0206 372.7505 439.0206 372.9708V388.8706C439.0206 389.0903 439.1303 389.2003 439.3502 389.2003H439.977C440.1967 389.2003 440.3069 389.0903 440.3069 388.8706V386.7262C440.3069 386.6604 440.3288 386.6272 440.373 386.6272 440.4169 386.6272 440.4498 386.6604 440.4719 386.7262 440.8016 387.54 441.2415 388.1778 441.7914 388.6396 442.3411 389.1016 443.001 389.3321 443.7703 389.3321ZM448.158 372.6408C447.9378 372.6408 447.8281 372.7505 447.8281 372.9708V388.8706C447.8281 389.0903 447.9378 389.2003 448.158 389.2003H448.7845C449.0045 389.2003 449.1145 389.0903 449.1145 388.8706V372.9708C449.1145 372.7505 449.0045 372.6408 448.7845 372.6408ZM448.4546 392.7628C448.0149 392.7628 447.6574 392.9057 447.3825 393.1917 447.1078 393.4774 446.97 393.8295 446.97 394.2473 446.97 394.687 447.1078 395.0501 447.3825 395.3361 447.6574 395.6219 448.0149 395.7647 448.4546 395.7647 448.8945 395.7647 449.2573 395.6219 449.5433 395.3361 449.8291 395.0501 449.9719 394.687 449.9719 394.2473 449.9719 393.8074 449.8291 393.4502 449.5433 393.1753 449.2573 392.9006 448.8945 392.7628 448.4546 392.7628" fill-rule="evenodd"/>
</g>
</svg>
