<?xml version="1.0" standalone="no"?>
<!DOCTYPE svg PUBLIC "-//W3C//DTD SVG 20010904//EN"
 "http://www.w3.org/TR/2001/REC-SVG-20010904/DTD/svg10.dtd">
<svg version="1.0" xmlns="http://www.w3.org/2000/svg"
 width="1448.000000pt" height="512.000000pt" viewBox="0 0 1448.000000 512.000000"
 preserveAspectRatio="xMidYMid meet">
<metadata>
Created by potrace 1.16, written by Peter Selinger 2001-2019
</metadata>
<g transform="translate(0.000000,512.000000) scale(0.100000,-0.100000)"
fill="currentColor" stroke="none">
<path d="M8214 5040 c-375 -6 -368 -4 -380 -68 -4 -20 -19 -63 -34 -96 -15
-34 -33 -90 -39 -126 -7 -35 -24 -86 -37 -112 -13 -26 -31 -79 -39 -118 -8
-38 -22 -87 -31 -107 -9 -21 -26 -71 -38 -112 -34 -119 -79 -124 -107 -10 -9
35 -25 87 -37 114 -12 28 -28 80 -37 118 -8 37 -25 86 -36 110 -12 23 -32 80
-44 127 -12 47 -32 108 -43 135 -12 28 -24 62 -27 78 -3 15 -14 36 -25 47 -19
19 -35 20 -388 20 -345 0 -370 -1 -385 -18 -10 -10 -17 -27 -17 -38 0 -27 27
-100 54 -148 13 -23 32 -68 41 -101 9 -33 27 -78 40 -100 13 -22 30 -66 39
-98 8 -33 26 -76 40 -98 14 -21 30 -60 36 -86 6 -26 24 -74 41 -105 16 -32 35
-82 43 -112 8 -30 26 -71 40 -92 14 -22 30 -61 36 -89 6 -27 24 -73 40 -101
16 -29 36 -80 45 -114 9 -34 27 -78 40 -99 13 -20 29 -58 36 -86 7 -27 28 -79
47 -115 29 -56 33 -72 30 -120 -3 -38 -12 -68 -30 -95 -15 -22 -34 -67 -43
-100 -10 -33 -30 -82 -45 -110 -15 -27 -33 -72 -39 -100 -7 -27 -25 -72 -40
-100 -16 -27 -34 -72 -40 -100 -7 -27 -25 -72 -40 -100 -16 -27 -34 -72 -40
-98 -6 -27 -24 -72 -40 -100 -16 -29 -34 -74 -41 -102 -6 -27 -24 -73 -40
-100 -16 -28 -34 -73 -40 -100 -6 -28 -22 -66 -35 -86 -13 -21 -31 -66 -40
-100 -9 -35 -27 -81 -41 -101 -23 -36 -54 -132 -54 -169 0 -9 8 -23 18 -32 17
-15 58 -17 380 -17 410 0 390 -4 412 82 6 24 24 72 40 108 15 36 34 92 40 125
7 33 23 81 36 107 13 26 33 82 43 125 10 43 28 101 40 128 11 28 27 75 36 106
9 35 22 59 32 64 25 9 58 -33 66 -82 4 -22 17 -64 31 -94 13 -30 31 -87 40
-128 9 -40 27 -94 40 -120 13 -25 30 -78 39 -118 9 -40 27 -94 40 -120 13 -26
30 -72 37 -101 20 -86 4 -83 421 -80 l363 3 12 23 c15 31 -2 110 -38 172 -14
25 -33 71 -43 104 -9 32 -29 82 -45 110 -15 28 -31 69 -35 91 -3 22 -19 60
-35 85 -15 25 -35 73 -44 107 -8 35 -27 80 -40 100 -14 21 -32 67 -41 102 -9
34 -27 79 -40 100 -13 20 -29 59 -36 86 -6 28 -24 73 -40 102 -16 28 -34 73
-40 100 -6 26 -24 71 -39 98 -15 28 -35 77 -45 110 -9 33 -30 84 -47 113 -27
48 -30 60 -26 126 3 59 8 81 31 115 15 23 35 69 43 103 9 34 27 78 39 97 13
20 31 63 40 96 9 33 30 83 45 111 16 28 32 69 35 90 4 21 22 66 40 99 18 33
38 83 44 110 7 28 25 73 40 100 16 28 34 72 40 98 6 27 24 72 40 100 16 29 34
73 40 100 6 26 27 77 46 113 19 36 35 75 35 87 0 11 18 57 40 101 21 45 42 93
45 107 8 33 -20 66 -60 71 -16 2 -183 1 -371 -2z"/>
<path d="M96 5018 c-14 -20 -16 -196 -16 -1681 0 -1425 2 -1663 14 -1692 l15
-35 893 0 c993 0 927 -5 948 68 13 48 13 506 0 554 -6 20 -22 46 -37 58 -25
20 -37 20 -514 20 l-488 0 -15 22 c-23 32 -24 593 -2 624 13 18 32 19 291 24
l277 5 24 28 24 28 0 304 c0 303 0 304 -22 319 -19 14 -65 16 -295 16 -260 0
-274 1 -293 20 -19 19 -20 33 -20 314 0 291 0 295 22 321 l23 26 473 0 c403
-1 478 1 503 14 55 29 58 47 59 337 0 146 -3 273 -6 282 -18 47 -7 46 -953 46
l-890 0 -15 -22z"/>
<path d="M2260 5013 c-18 -23 -21 -36 -16 -72 3 -24 6 -774 6 -1667 0 -1611 0
-1624 20 -1644 19 -19 33 -20 378 -20 196 0 362 4 368 8 33 21 34 50 34 685 0
632 0 634 21 653 19 17 41 19 278 22 141 1 266 4 278 7 49 11 53 41 53 358 0
237 -3 297 -14 313 -13 18 -32 19 -294 24 -257 5 -282 7 -301 24 -20 19 -21
27 -21 302 0 300 3 323 47 343 16 8 168 11 485 11 453 0 461 0 499 22 21 11
43 33 49 47 7 17 9 121 8 301 l-3 275 -35 17 c-33 17 -98 18 -927 18 l-892 0
-21 -27z"/>
<path d="M4393 5030 c-50 -20 -48 61 -43 -1713 l5 -1659 28 -24 28 -24 893 0
893 0 19 21 c18 19 19 42 22 300 3 305 -2 349 -43 367 -19 9 -162 12 -506 12
l-480 0 -24 25 -25 24 0 284 0 284 26 26 26 27 261 2 261 3 23 34 c23 33 23
38 23 326 0 290 0 292 -23 313 -21 20 -33 21 -289 24 -241 3 -269 5 -285 21
-16 16 -18 45 -21 297 -3 300 0 324 49 351 15 7 167 11 500 12 l478 2 23 23
c23 22 23 26 26 317 3 285 2 295 -18 315 -20 20 -27 20 -912 19 -492 0 -903
-4 -915 -9z"/>
<path d="M9670 5029 c-44 -4 -107 -20 -152 -38 -42 -17 -83 -31 -91 -31 -8 0
-39 -16 -68 -36 -30 -20 -70 -44 -89 -54 -39 -20 -220 -191 -220 -208 0 -6
-16 -32 -36 -58 -20 -26 -45 -72 -55 -103 -11 -31 -29 -75 -40 -98 -29 -60
-39 -143 -39 -336 0 -165 0 -168 25 -192 l24 -25 349 0 c329 0 351 1 373 19
23 18 24 26 29 188 5 167 5 170 34 211 35 51 109 102 148 102 16 0 51 -11 78
-25 43 -22 55 -34 85 -95 32 -64 35 -77 35 -158 0 -63 -6 -106 -20 -148 -12
-32 -27 -88 -36 -124 -8 -35 -28 -85 -43 -110 -16 -25 -34 -62 -41 -83 -6 -21
-23 -50 -36 -66 -13 -16 -31 -45 -39 -64 -8 -19 -27 -49 -42 -67 -15 -19 -37
-48 -48 -65 -43 -69 -156 -216 -259 -335 -11 -14 -34 -43 -50 -65 -36 -50 -83
-106 -238 -286 -244 -284 -316 -377 -320 -413 -2 -17 -1 -165 2 -329 5 -281 6
-299 24 -313 17 -12 167 -14 981 -14 l962 0 19 21 c18 20 19 42 22 308 3 286
3 287 -20 321 l-24 35 -462 3 -462 2 -16 25 c-20 31 -12 47 81 153 39 44 95
110 125 147 30 36 69 82 85 100 17 18 50 59 75 90 25 31 61 76 80 100 19 24
55 71 80 105 25 33 59 78 76 98 17 20 41 56 53 79 11 23 25 45 31 48 6 4 22
30 36 58 15 29 35 61 45 72 10 12 28 47 38 78 11 32 29 71 40 86 12 16 28 60
37 97 8 38 27 107 42 154 24 79 26 98 26 280 0 152 -4 206 -16 245 -9 28 -28
88 -41 134 -14 46 -34 96 -45 110 -11 15 -30 47 -42 71 -12 25 -37 61 -54 81
-17 20 -38 44 -47 55 -32 38 -122 114 -135 114 -7 0 -29 14 -48 30 -19 17 -58
39 -88 49 -29 11 -73 28 -98 39 -25 12 -83 26 -130 31 -95 12 -337 12 -450 0z"/>
<path d="M11359 5029 c-21 -4 -63 -21 -95 -37 -33 -17 -75 -33 -95 -36 -47 -8
-97 -42 -127 -86 -23 -34 -23 -37 -20 -291 l3 -257 25 -27 c27 -29 17 -29 180
-1 102 18 150 15 171 -11 12 -13 15 -246 19 -1323 5 -1268 6 -1309 24 -1329
19 -21 26 -21 376 -21 337 0 359 1 381 19 l24 19 3 1664 c1 914 0 1672 -2
1684 -11 41 -37 44 -444 43 -213 -1 -403 -5 -423 -10z"/>
<path d="M13229 5029 c-43 -4 -103 -19 -135 -32 -33 -14 -78 -30 -101 -36 -23
-6 -55 -22 -70 -35 -15 -13 -46 -33 -68 -44 -47 -24 -196 -173 -219 -219 -9
-18 -27 -49 -41 -68 -13 -20 -29 -61 -35 -92 -7 -31 -18 -74 -25 -94 -31 -88
-34 -185 -25 -1034 8 -839 9 -852 34 -1025 25 -168 28 -179 77 -275 76 -151
184 -271 281 -315 24 -10 58 -30 76 -44 19 -13 52 -28 75 -31 22 -4 71 -18
108 -30 111 -38 202 -48 386 -43 145 5 179 9 248 31 44 15 104 31 132 37 29 7
69 23 90 37 21 14 56 34 78 43 22 10 79 54 126 98 99 93 158 183 183 283 12
46 27 75 47 95 l29 28 0 417 c0 376 -2 418 -17 430 -25 21 -51 88 -68 173 -8
42 -23 89 -33 104 -11 15 -29 45 -40 67 -28 56 -168 198 -222 225 -24 13 -60
33 -80 46 -24 16 -67 27 -141 38 -133 20 -181 20 -294 0 -70 -12 -98 -22 -127
-44 -20 -16 -57 -35 -82 -42 -80 -21 -80 -20 -77 264 l2 243 32 64 c26 52 40
67 72 82 55 25 90 24 141 -6 38 -22 46 -33 60 -82 9 -31 17 -94 18 -140 1 -79
3 -84 34 -115 l32 -33 323 -5 c180 -3 332 -1 344 4 13 5 29 27 39 53 15 37 16
67 11 201 -8 190 -21 275 -49 322 -11 19 -26 51 -33 70 -18 50 -108 167 -171
220 -133 114 -305 193 -457 210 -96 11 -359 11 -468 -1z m332 -1834 c19 -11
41 -39 66 -88 l37 -72 1 -290 0 -290 -33 -56 c-40 -70 -56 -84 -109 -98 -34
-9 -51 -8 -95 6 -49 17 -55 22 -88 83 l-35 65 0 295 0 295 31 60 c32 60 55 87
84 98 31 11 112 6 141 -8z"/>
<path d="M9967 1173 c-4 -3 -7 -12 -7 -20 0 -9 17 -13 60 -13 61 0 76 11 41
30 -22 11 -84 14 -94 3z"/>
<path d="M4360 1110 c-19 -19 -20 -35 -21 -482 -1 -255 -1 -473 -1 -486 0 -23
27 -62 44 -62 4 0 8 101 8 224 l0 225 26 20 c22 18 41 21 113 21 62 0 93 4
107 15 19 15 19 15 0 30 -14 11 -45 15 -107 15 -73 0 -90 3 -114 22 l-27 21 5
201 c3 111 8 213 12 229 9 33 -15 37 -45 7z"/>
<path d="M9851 1094 c-12 -15 -21 -32 -21 -38 0 -7 -13 -25 -30 -41 -28 -27
-30 -34 -30 -98 0 -65 2 -72 35 -108 19 -22 35 -47 35 -56 0 -20 158 -176 200
-198 16 -8 34 -24 40 -35 5 -10 23 -27 40 -36 16 -10 34 -31 40 -48 14 -39 39
-66 62 -66 14 0 18 8 18 40 0 35 -6 45 -61 97 -33 32 -78 75 -99 96 -22 20
-44 37 -50 37 -6 0 -44 33 -85 73 -40 39 -82 80 -94 89 -19 16 -21 28 -21 112
l0 95 43 28 c29 20 43 37 45 56 3 23 0 27 -22 27 -15 0 -33 -10 -45 -26z"/>
<path d="M10133 1088 c3 -7 17 -39 30 -72 14 -32 32 -65 40 -73 13 -14 16 -13
26 5 16 30 2 102 -25 129 -25 24 -80 33 -71 11z"/>
<path d="M11137 1093 c-4 -3 -7 -226 -7 -494 0 -481 3 -520 32 -491 7 7 14
832 8 982 0 11 -23 14 -33 3z"/>
<path d="M6243 1074 c-8 -22 9 -49 33 -49 30 0 27 59 -4 63 -14 2 -25 -3 -29
-14z"/>
<path d="M7865 1069 c-5 -14 -1 -27 9 -37 15 -15 17 -15 32 0 20 20 10 58 -16
58 -10 0 -22 -10 -25 -21z"/>
<path d="M12485 1071 c-8 -15 3 -31 21 -31 9 0 14 7 12 17 -4 20 -24 28 -33
14z"/>
<path d="M7205 1060 c-3 -5 1 -10 9 -10 9 0 16 5 16 10 0 6 -4 10 -9 10 -6 0
-13 -4 -16 -10z"/>
<path d="M12100 1021 c-9 -7 -14 -28 -15 -63 0 -34 -8 -65 -20 -86 -17 -28
-18 -36 -6 -65 28 -70 31 -112 29 -396 -2 -279 -1 -294 18 -308 10 -7 28 -12
39 -11 17 3 19 9 17 43 -2 22 -5 171 -5 330 -2 265 0 294 17 332 18 41 18 43
1 70 -12 18 -19 49 -20 86 -2 68 -19 90 -55 68z"/>
<path d="M7510 892 c-22 -7 -60 -44 -60 -58 0 -19 50 -74 67 -74 20 0 101 51
107 67 9 23 -83 75 -114 65z"/>
<path d="M5791 846 c-16 -18 13 -36 58 -36 35 0 39 10 13 33 -23 21 -56 22
-71 3z"/>
<path d="M6721 851 c-22 -14 -4 -29 44 -36 61 -10 74 -4 47 23 -22 22 -66 29
-91 13z"/>
<path d="M8314 846 c-23 -17 -17 -25 22 -27 64 -4 94 1 94 15 0 28 -82 36
-116 12z"/>
<path d="M9006 845 c-6 -17 0 -20 57 -30 31 -5 41 -12 52 -39 14 -34 33 -53
69 -71 21 -10 21 -15 23 -304 2 -306 6 -334 43 -311 13 8 15 51 15 289 0 274
0 280 -22 303 -12 13 -28 41 -35 63 -10 31 -22 44 -54 60 -23 11 -51 28 -61
38 -24 21 -79 23 -87 2z"/>
<path d="M10620 845 c-18 -22 -8 -27 55 -27 64 0 78 8 51 28 -26 19 -90 18
-106 -1z"/>
<path d="M12912 848 c-22 -22 -12 -28 48 -28 58 0 60 1 50 20 -12 23 -78 28
-98 8z"/>
<path d="M13617 853 c-30 -8 -14 -24 38 -42 41 -13 55 -24 80 -65 l30 -49 5
-296 c3 -163 9 -302 13 -309 12 -18 35 -14 42 8 4 11 7 154 7 318 2 321 0 330
-52 357 -16 8 -44 28 -62 44 -34 29 -70 41 -101 34z"/>
<path d="M14220 840 c0 -5 11 -10 25 -10 14 0 25 5 25 10 0 6 -11 10 -25 10
-14 0 -25 -4 -25 -10z"/>
<path d="M6536 813 c-9 -9 -7 -136 2 -151 6 -9 21 -1 55 31 54 50 63 91 25
106 -41 15 -75 21 -82 14z"/>
<path d="M4977 803 c-4 -3 -7 -21 -7 -39 0 -25 7 -38 25 -50 30 -19 45 -11 45
24 0 46 -41 88 -63 65z"/>
<path d="M5590 784 c-13 -32 -12 -50 1 -96 6 -22 16 -38 25 -38 19 0 74 87 74
117 0 46 -84 61 -100 17z"/>
<path d="M8818 788 c-9 -17 -12 -105 -11 -357 2 -288 4 -336 17 -350 15 -14
17 -14 32 0 13 14 15 58 17 305 2 281 3 290 25 325 28 46 28 64 0 83 -32 23
-65 20 -80 -6z"/>
<path d="M11379 794 c-19 -23 -13 -586 6 -624 13 -24 37 -48 104 -102 11 -10
21 -29 21 -43 0 -24 2 -25 75 -25 79 0 89 7 61 45 -9 13 -27 19 -57 21 -24 0
-50 2 -56 3 -7 0 -20 16 -29 34 -9 17 -28 42 -43 54 l-26 21 -1 301 c-1 225
-4 305 -14 316 -16 19 -24 19 -41 -1z"/>
<path d="M11774 784 c-4 -14 -7 -151 -8 -304 -1 -272 -2 -279 -23 -309 -32
-42 -29 -68 10 -91 71 -44 76 -24 78 360 1 179 -1 335 -5 348 -10 31 -44 29
-52 -4z"/>
<path d="M12839 803 c-9 -2 -38 -29 -65 -61 l-49 -56 0 -252 c0 -283 0 -283
77 -327 37 -22 61 -18 43 7 -53 72 -50 51 -50 329 l0 259 36 32 c58 49 62 84
8 69z"/>
<path d="M13040 791 c0 -22 29 -56 66 -77 18 -11 19 -24 19 -273 l0 -261 -32
-31 c-28 -26 -45 -69 -27 -69 16 0 53 28 86 64 46 50 48 62 45 327 l-2 206
-35 41 c-19 22 -42 49 -50 61 -8 11 -27 23 -42 27 -24 5 -28 3 -28 -15z"/>
<path d="M5900 780 c0 -11 12 -50 26 -87 15 -38 31 -79 36 -92 12 -32 17 -24
29 49 13 82 0 124 -43 139 -43 15 -48 14 -48 -9z"/>
<path d="M6262 788 c-12 -15 -20 -668 -8 -687 9 -14 33 -14 41 -1 4 6 7 159 7
341 0 275 -2 334 -14 346 -12 12 -17 12 -26 1z"/>
<path d="M8470 770 c0 -36 41 -83 68 -78 28 5 27 54 -2 83 -36 36 -66 34 -66
-5z"/>
<path d="M10504 775 c-32 -32 -30 -78 2 -83 28 -4 64 41 64 79 0 38 -31 39
-66 4z"/>
<path d="M14097 782 c-25 -27 -22 -72 3 -72 28 0 60 35 60 65 0 20 -5 25 -23
25 -13 0 -31 -8 -40 -18z"/>
<path d="M14330 780 c0 -12 15 -29 40 -45 22 -14 40 -32 40 -41 0 -17 44 -64
60 -64 5 0 10 22 10 50 l0 50 -35 0 c-28 0 -37 5 -49 29 -22 42 -66 56 -66 21z"/>
<path d="M6853 773 c4 -10 16 -45 28 -78 31 -83 39 -353 14 -460 -9 -38 -17
-86 -18 -105 -2 -32 0 -35 23 -32 54 7 55 13 54 329 -1 159 -5 300 -9 312 -7
22 -52 51 -81 51 -11 0 -15 -6 -11 -17z"/>
<path d="M7865 768 c-3 -13 -4 -167 -3 -343 3 -312 3 -320 23 -320 20 0 20 7
20 340 0 313 -1 340 -17 343 -11 2 -19 -5 -23 -20z"/>
<path d="M8190 772 c-18 -14 -22 -28 -22 -70 1 -92 15 -95 56 -14 20 39 36 78
36 87 0 21 -42 19 -70 -3z"/>
<path d="M10780 781 c0 -39 66 -139 82 -123 16 16 12 91 -7 112 -18 20 -75 28
-75 11z"/>
<path d="M13411 776 c-8 -10 -10 -49 -7 -128 2 -62 6 -176 7 -253 l3 -140 5
197 6 197 43 43 c43 45 54 81 26 92 -28 11 -71 6 -83 -8z"/>
<path d="M5305 749 c-12 -19 -24 -80 -18 -95 15 -39 65 8 67 63 1 32 -3 39
-21 41 -11 2 -24 -2 -28 -9z"/>
<path d="M12500 725 c0 -15 4 -24 10 -20 6 3 10 12 10 20 0 8 -4 17 -10 20 -6
4 -10 -5 -10 -20z"/>
<path d="M5046 664 c-9 -23 3 -81 20 -95 23 -19 44 -3 44 33 0 57 -48 103 -64
62z"/>
<path d="M14034 655 c-8 -19 2 -45 16 -45 5 0 10 14 10 30 0 31 -16 41 -26 15z"/>
<path d="M5218 577 c-18 -18 -45 -41 -60 -51 -27 -16 -28 -20 -28 -91 0 -71 1
-75 28 -91 15 -10 41 -32 59 -51 18 -18 37 -33 44 -33 18 0 4 78 -20 111 -36
48 -36 74 -2 126 31 46 40 96 21 108 -5 3 -25 -9 -42 -28z"/>
<path d="M14074 566 c-9 -24 19 -70 53 -86 17 -8 43 -27 57 -42 19 -21 35 -28
63 -28 45 0 61 -9 76 -41 7 -13 29 -32 50 -42 l37 -19 0 -69 c0 -39 -5 -79
-10 -90 -10 -17 -7 -19 35 -19 l45 0 0 95 c0 94 0 95 -25 95 -13 0 -30 7 -37
16 -16 20 -51 53 -101 98 -28 25 -52 36 -88 41 -45 6 -52 11 -67 43 -20 42
-78 73 -88 48z"/>
<path d="M5966 534 c-9 -24 -6 -266 4 -289 5 -12 9 42 9 143 1 89 -1 162 -3
162 -2 0 -7 -7 -10 -16z"/>
<path d="M9782 308 c-17 -17 -15 -84 4 -102 25 -26 41 -19 47 21 10 58 -23
109 -51 81z"/>
<path d="M5060 295 c-14 -17 -19 -89 -7 -101 12 -12 41 10 51 38 19 53 -14
100 -44 63z"/>
<path d="M5290 186 c0 -48 21 -79 49 -74 22 5 19 72 -4 98 -30 33 -45 25 -45
-24z"/>
<path d="M8177 223 c-3 -5 -9 -28 -13 -50 -5 -34 -2 -45 15 -62 22 -22 56 -28
66 -11 11 18 -5 66 -34 100 -15 19 -30 29 -34 23z"/>
<path d="M5960 182 c-10 -32 -11 -45 -2 -54 23 -23 36 6 25 54 l-9 43 -14 -43z"/>
<path d="M6530 191 c-29 -55 8 -118 63 -107 17 4 34 11 38 18 11 17 -9 60 -39
85 -33 28 -48 28 -62 4z"/>
<path d="M10821 184 c-43 -54 -38 -99 10 -92 33 4 56 49 44 84 -14 38 -29 40
-54 8z"/>
<path d="M14035 199 c-8 -12 41 -86 66 -100 64 -34 64 15 0 69 -54 46 -57 47
-66 31z"/>
<path d="M10192 193 c-15 -6 -42 -55 -42 -76 0 -23 30 -29 56 -12 28 18 38 48
24 75 -11 21 -16 22 -38 13z"/>
<path d="M13395 169 c-7 -33 5 -56 24 -45 12 8 14 36 5 60 -10 25 -22 19 -29
-15z"/>
<path d="M7520 170 c-19 -36 8 -79 58 -94 20 -7 22 -4 22 29 0 25 -8 43 -25
60 -29 30 -41 31 -55 5z"/>
<path d="M8506 169 c-21 -16 -26 -28 -24 -53 3 -26 7 -31 28 -28 33 3 52 30
48 66 -4 38 -18 42 -52 15z"/>
<path d="M10487 183 c-9 -9 -9 -55 1 -70 9 -15 58 -34 66 -26 3 4 6 19 6 35 0
42 -50 85 -73 61z"/>
<path d="M12496 164 c-7 -18 0 -34 15 -34 12 0 12 37 0 44 -5 3 -12 -1 -15
-10z"/>
<path d="M4987 152 c-22 -24 -22 -71 0 -79 22 -9 53 31 53 68 0 34 -27 40 -53
11z"/>
<path d="M9830 161 c0 -46 51 -90 78 -69 18 15 15 26 -13 53 -24 25 -65 34
-65 16z"/>
<path d="M6737 61 c-46 -7 -67 -21 -67 -48 0 -10 24 -13 85 -13 l85 0 0 29 c0
17 -6 31 -16 35 -17 6 -16 7 -87 -3z"/>
<path d="M12908 63 c-34 -4 -38 -7 -38 -34 l0 -29 85 0 85 0 0 30 c0 23 -5 30
-19 30 -10 0 -31 2 -47 4 -16 2 -46 1 -66 -1z"/>
<path d="M4400 29 l0 -29 195 0 c107 0 195 4 195 8 0 5 -6 17 -14 27 -12 17
-30 19 -195 21 l-181 1 0 -28z"/>
<path d="M7610 30 c0 -28 3 -30 35 -30 42 0 44 11 9 39 -36 28 -44 26 -44 -9z"/>
<path d="M8276 38 c-3 -13 -6 -26 -6 -30 0 -5 43 -8 95 -8 99 0 105 3 89 44
-5 13 -23 16 -89 16 -77 0 -83 -1 -89 -22z"/>
<path d="M9947 53 c-4 -3 -7 -17 -7 -30 0 -22 2 -23 90 -23 80 0 90 2 90 18 0
32 -22 42 -95 42 -40 0 -75 -3 -78 -7z"/>
<path d="M10586 44 c-16 -41 -10 -44 89 -44 99 0 105 3 89 44 -9 23 -169 23
-178 0z"/>
<path d="M14194 52 c-6 -4 -13 -17 -16 -29 -6 -22 -4 -23 73 -23 69 0 79 2 79
18 0 10 -5 23 -12 30 -13 13 -106 16 -124 4z"/>
<path d="M12207 43 c-4 -3 -7 -15 -7 -25 0 -14 8 -18 35 -18 36 0 46 15 23 38
-13 13 -41 16 -51 5z"/>
</g>
</svg>
